<?xml version="1.0" encoding="utf-8"?><!DOCTYPE svg PUBLIC "-//W3C//DTD SVG 1.1//EN" "http://www.w3.org/Graphics/SVG/1.1/DTD/svg11.dtd"><svg version="1.1" id="Layer_1" xmlns="http://www.w3.org/2000/svg" xmlns:xlink="http://www.w3.org/1999/xlink" x="0px" y="0px"	 width="1000.457px" height="263.171px" viewBox="-195.438 265.658 1000.457 263.171"	 enable-background="new -195.438 265.658 1000.457 263.171" xml:space="preserve"><g id="Logo">	<g id="Universal_Type_1_">		<path id="U" fill="#FFFFFF" d="M-40.351,527.658c-6.762,0-10.354-4.016-10.354-8.029v-26.834h7.818v25.143c0,1.902,1.689,2.747,3.169,2.747h4.014			c1.479,0,3.17-0.634,3.17-2.747v-25.143h7.606v27.045c0,4.014-3.38,8.029-9.72,8.029h-5.705V527.658z"/>		<polygon id="N" fill="#FFFFFF" points="57.054,527.445 46.067,508.43 46.067,527.445 38.46,527.445 38.46,493.006 45.855,493.006 57.054,512.867 			57.054,493.006 64.449,493.006 64.449,527.445 		"/>		<rect id="I" x="127.414" y="493.006" fill="#FFFFFF" width="8.452" height="34.439"/>		<polygon id="V" fill="#FFFFFF" points="208.126,527.445 196.928,493.006 204.535,493.006 211.93,517.304 219.536,493.006 227.142,493.006 			215.732,527.445 		"/>		<polygon id="E" fill="#FFFFFF" points="288.839,527.445 288.839,493.006 310.391,493.006 310.391,499.767 296.446,499.767 296.446,506.529 			308.488,506.529 308.488,513.29 296.446,513.29 296.446,520.685 310.813,520.685 310.813,527.445 		"/>		<path id="R" fill="#FFFFFF" d="M392.16,527.445l-5.07-11.621h-5.284v11.621H374.2v-34.439h15.002c6.549,0,9.93,4.016,9.93,7.818v7.184			c0,2.958-1.9,5.493-5.07,6.972l6.128,12.466H392.16z M388.355,509.063c1.479,0,3.171-0.634,3.171-2.534v-4.016			c0-1.689-1.269-2.535-3.171-2.535h-6.55v9.296h6.55V509.063z"/>		<path id="S" fill="#FFFFFF" d="M472.028,527.658c-6.763,0-10.354-4.016-10.354-8.029v-2.959h7.606v1.268c0,1.902,1.689,2.747,3.381,2.747h3.591			c1.057,0,3.381-0.21,3.381-2.747v-0.845c0-1.269-2.747-2.324-5.705-3.381c-5.071-1.901-12.043-4.438-12.043-10.564v-3.169			c0-3.804,3.169-7.817,9.297-7.817h5.704c6.55,0,9.932,4.014,9.932,7.817v4.438h-7.606v-2.747c0-1.69-1.268-2.747-3.17-2.747			h-3.593c-1.9,0-3.168,1.057-3.168,2.536v0.845c0,1.479,2.957,2.535,6.126,3.803c5.071,1.902,11.621,4.438,11.621,9.509v3.592			c0,4.014-3.379,7.818-9.93,7.818h-5.07V527.658z"/>		<path id="A" fill="#FFFFFF" d="M570.911,527.445l-2.323-6.761h-12.256l-2.323,6.761h-6.763l11.41-34.439h7.395l11.411,34.439H570.911z			 M566.475,513.924l-3.592-10.987h-0.424l-3.592,10.987H566.475z"/>		<polygon id="L" fill="#FFFFFF" points="639.579,527.445 639.579,493.006 647.187,493.006 647.187,520.262 660.287,520.262 660.287,527.445 		"/>	</g>	<path id="Studio_Type_1_" fill="#FFFFFF" d="M-142.615,442.931c-34.651,0-52.822-19.65-52.822-38.877v-13.946h38.877v4.437		c0,8.665,6.127,13.946,16.48,13.946h9.72c4.437,0,16.48,0,16.48-13.946v-1.901c0-8.452-9.296-12.254-18.171-15.847		c-1.689-0.634-3.168-1.267-4.647-1.901l-2.536-1.057c-23.876-10.142-56.204-24.087-56.204-52.399v-16.058		c0-19.439,16.48-39.089,47.752-39.089h22.607c32.961,0,50.288,19.65,50.288,38.877v18.171h-38.877v-8.874		c0-8.663-6.127-13.945-16.481-13.945h-9.93c-10.353,0-16.48,5.282-16.48,13.945v2.112c0,8.452,11.198,13.522,24.087,19.228		l3.17,1.479c1.901,0.845,3.803,1.691,5.916,2.536c21.129,9.296,49.654,21.974,49.654,44.583v19.227		c0,19.439-17.327,38.878-50.288,38.878h-18.594V442.931z M735.718,442.297c-34.653,0-52.822-19.65-52.822-38.878v-98.883		c0-19.439,18.169-38.878,52.822-38.878h19.016c32.962,0,50.286,19.65,50.286,38.878v98.673c0,19.438-17.324,38.877-50.286,38.877		h-19.016V442.297z M738.252,300.098c-10.353,0-16.479,5.283-16.479,13.946v80.078c0,8.663,6.127,13.945,16.479,13.945h11.41		c10.354,0,16.48-5.282,16.48-13.945v-80.29c0-8.663-6.127-13.945-16.48-13.945h-11.41V300.098z M228.41,442.297		c-34.652,0-52.822-19.65-52.822-38.878V266.926h38.877v126.985c0,8.663,6.126,13.945,16.48,13.945h11.41		c10.353,0,16.48-5.282,16.48-13.945V266.926h38.877v136.283c0,19.438-17.325,38.877-50.287,38.877H228.41V442.297z		 M571.546,440.817V266.926h38.877v173.892H571.546z M373.145,440.817V267.137h72.684c32.961,0,50.285,19.65,50.285,38.878v95.715		c0,19.438-17.324,38.877-50.285,38.877h-72.684V440.817z M412.021,406.377h28.735c10.353,0,16.479-5.281,16.479-13.945v-76.909		c0-8.664-6.127-13.945-16.479-13.945h-28.735V406.377z M30.009,440.817V301.366h-43.103v-34.44H111.99v34.44H68.886v139.451H30.009		z"/></g></svg>
