<?xml version="1.0" encoding="UTF-8"?><svg id="a" xmlns="http://www.w3.org/2000/svg" width="1114.79" height="740" viewBox="0 0 1114.79 740"><defs><style>.d{fill:#ffffff;}.e{fill:#0678b6;}</style></defs><g id="b"><polygon class="e" points="62.68 500.29 115.06 500.24 149.05 565.94 208.08 500.24 264.9 500.27 233.25 674.51 180.9 674.51 200.45 561.76 141.13 628.42 103.23 565 83.12 676.53 20.57 732.38 62.68 500.29"/><path class="e" d="m383.02,495.7c-77.93.17-112.42,71.75-112.51,105.49-.09,30.34,12.67,73.39,75.12,78.37,39.96,3.19,105.2-25.57,117.81-91.85,5.88-30.86,0-92.19-80.41-92.02h0Zm28.77,91.7c-5.82,32.31-34.42,45.87-54.35,44.79-26.7-1.46-35.41-23.11-34.65-38.21.83-16.43,15.95-51.35,51.9-51.43,37.1-.09,39.8,29.82,37.09,44.86h0Z"/><path class="e" d="m886.44,622.5h51.63c.22,1.46.44,2.84.63,4.22.93,6.28,6.6,10.98,15.01,11.34,6.2.26,11.85-1.24,16.87-4.9,4.49-3.28,6.31-7.77,5.29-13.11-.33-1.7-1.68-3.57-3.12-4.62-2.69-1.97-5.65-3.72-8.74-4.98-10.32-4.21-20.72-8.24-31.13-12.21-8.56-3.26-16.58-7.33-22.94-14.09-8.79-9.34-11.28-20.35-8.18-32.6,6.97-27.52,25.77-43.54,51.92-51.94,6.18-1.98,12.87-2.43,19.34-3.52,9.02-1.51,17.82.3,26.69,1.67,17.49,2.7,32.49,16.1,36.12,33.3,1.25,5.93,1,12.16,1.45,18.49h-51.82s.13-1.32.22-2.02c.84-6.71-3.3-9.15-8.48-10.13-4.67-.89-9.55-.99-14.17,1.06-3.92,1.74-6.75,4.66-8.18,8.52-1.24,3.38.05,6.8,3.03,8.62,4.95,3.39,10.11,5.9,15.52,7.94,10.58,3.99,21.49,7.1,32.08,11.08,6.81,2.56,12.77,6.74,17.53,12.41,4.17,4.98,6.58,10.71,6.88,17.17,1.54,32.2-15.07,53.04-42.7,66.63-10.02,4.92-20.85,7.2-32,8.32-10.22,1.03-20.19.2-30.01-2.47-16.74-4.55-30.04-13.4-36.23-30.4-2.78-7.62-3.3-15.57-2.52-23.77h0Z"/><polygon class="e" points="466.39 500.24 523.82 500.24 560.25 611.1 614.42 500.24 666.98 500.24 582.65 674.51 527.64 674.51 466.39 500.24"/><polygon class="e" points="882.94 533.42 889.06 500.24 819.82 500.24 767.17 500.24 735.95 674.48 788.1 674.48 788.09 674.53 857.25 674.53 863.37 641.35 794.16 641.35 801.37 601.68 870.49 601.68 876.62 568.5 807.41 568.5 813.79 533.42 882.94 533.42"/><polygon class="e" points="684.92 500.24 737.56 500.24 705.89 674.48 653.7 674.48 684.92 500.24"/></g><path id="c" class="d" d="m398.42,445.64l-87.66-240.3h-85.3l-42.47,240.3h-115.18l42.47-240.3H5.9l16.62-93.92h104.37L231.02,0h30.72l-19.68,111.42h150.19l71.22,195.16,104-195.16h126.22l-178.15,334.22h-117.13Zm520.81,0l-91.58-250.98-44.36,250.98h-115.18L746.9,0h117.5l91.1,249.68L999.61,0h115.18l-78.78,445.64h-116.8.02Z"/></svg>
